PathFileType	4	(X/Y/Z)	C:/Users/beibeiliu/ov580/test_trc/User2\sequence.26_training_dense_left.trc
DataRate	CameraRate	NumFrames	NumMarkers	Units	OrigDataRate	OrigDataStartFrame	OrigNumFrames
120	120	8	19	mm	120	1	109
Frame#	Time	ThumbCMC			ThumbMCP			ThumbIP			ThumbTip			IndexMCP			IndexPIP			IndexTip			MiddleMCP			MiddlePIP			MiddleTip			RingMCP			RingPIP			RingTip			PinkyMCP			PinkyPIP			PinkyTip			BackHand1			BackHand2			BackHand3	
		X0	Y0	Z0	X1	Y1	Z1	X2	Y2	Z2	X3	Y3	Z3	X4	Y4	Z4	X5	Y5	Z5	X6	Y6	Z6	X7	Y7	Z7	X8	Y8	Z8	X9	Y9	Z9	X10	Y10	Z10	X11	Y11	Z11	X12	Y12	Z12	X13	Y13	Z13	X14	Y14	Z14	X15	Y15	Z15	X16	Y16	Z16	X17	Y17	Z17	X18	Y18	Z18	
0	0	-218.688	74.5968	-7.61749	-197.082	85.9552	-23.544	-176.205	103.86	-45.1993	-158.379	116.317	-58.9113	-190.558	28.1551	-79.2782	-158.874	18.3814	-78.9207	-149.373	25.7395	-40.7673	-189.528	6.02174	-77.653	-155.559	-2.96427	-65.5563	-159.117	10.9749	-27.4211	-191.525	-14.173	-69.6587	-163.597	-18.8336	-60.9191	-163.981	-1.12564	-28.0926	-217.453	-33.1755	-52.9855	-206.121	-47.6771	-68.1899	-192.806	-60.4467	-88.8924	-243.123	7.44851	-35.078	-261.96	18.1859	-2.86623	-243.809	45.5694	-26.8641	
1	0.00833333	-240.791	75.2743	-10.6467	-225.269	93.6194	-28.21	-208.387	109.348	-50.129	-195.584	129.202	-65.4481	-196.893	39.2216	-77.7165	-162.547	40.7644	-74.0245	-162.35	53.1708	-38.186	-186.336	20.1022	-75.3023	-155.289	24.2942	-63.8569	-167.532	38.1797	-25.0759	-184.21	-3.1999	-61.8148	-156.368	8.77281	-53.6717	-170.334	27.4286	-20.0867	-202.429	-20.5249	-43.8587	-181.125	-36.5841	-64.176	-166.453	-44.0737	-78.5549	-240.725	3.00231	-27.4936	-262.677	9.78689	-4.18166	-253.41	40.6616	-27.9187	
2	0.0166667	-262.246	73.1679	-12.4402	-253.119	92.8997	-30.5391	-242.449	116.327	-59.9212	-235.346	131.735	-70.6747	-204.356	54.7025	-81.8984	-176.256	62.7484	-77.209	-178.423	80.9309	-46.1154	-191.271	33.1749	-72.8015	-162.288	52.2418	-62.5555	-180.682	64.9512	-29.2159	-183.115	19.679	-60.295	-157.736	40.3165	-48.6665	-178.043	51.2358	-20.8881	-189.464	-6.46611	-39.6741	-165.324	-13.095	-55.5641	-146.924	-14.7116	-70.9715	-234.676	3.89341	-25.7028	-257.564	6.1298	-2.3613	-260.975	33.8819	-25.9186	
3	0.025	-279.152	68.1635	-21.9403	-275.097	86.5856	-38.8288	-274.104	108.824	-65.1049	-273.825	126.565	-78.3307	-218.081	58.6503	-85.1352	-194.84	82.0898	-84.3045	-199.175	91.5125	-53.0112	-202.253	45.9948	-77.2765	-177.609	73.4813	-67.6972	-199.049	78.7819	-34.9849	-185.861	36.8523	-65.2168	-168.211	62.2787	-55.525	-188.673	72.7598	-31.3559	-187.766	14.6496	-41.7309	-164.026	11.9096	-58.7566	-145.087	7.8345	-72.6624	-230.39	10.3912	-28.7412	-250.656	2.26954	-2.04413	-265.168	29.5406	-30.7361	
4	0.0333333	-288.295	58.0151	-18.7993	-292.21	78.0041	-43.7791	-300.577	98.0963	-68.1849	-304.268	114.822	-85.5803	-236.937	57.184	-90.3984	-214.896	81.2133	-95.0682	-223.297	99.6041	-64.1058	-212.398	52.9869	-88.0667	-198.692	84.2873	-76.8818	-217.006	86.8984	-45.7598	-192.57	43.2684	-68.6347	-184.254	75.758	-65.9276	-205.612	79.7899	-37.2162	-185.357	23.31	-45.6561	-169.513	27.6816	-64.041	-149.603	24.0529	-79.172	-231.457	11.225	-30.3646	-251.751	5.28149	-5.45002	-268.333	24.7007	-30.6028	
5	0.0416667	-291.486	51.7892	-21.8263	-299.298	68.083	-42.7707	-310.876	84.2981	-71.8698	-321.427	99.7264	-87.9044	-250.173	49.6529	-93.5608	-228.575	77.124	-98.4033	-239.921	93.7878	-71.6383	-221.159	47.3778	-91.3462	-212.394	80.3548	-89.3009	-228.618	81.8443	-52.9944	-201.091	42.9358	-76.824	-194.91	75.5983	-76.1194	-213.103	81.4614	-48.4661	-191.248	26.9248	-54.2673	-176.381	32.1388	-71.5055	-156.369	32.0886	-88.8027	-235.755	11.638	-29.5286	-246.527	4.49111	-1.46437	-273.195	20.4179	-28.484	
6	0.05	-295.74	45.866	-20.0412	-306.023	60.374	-42.2033	-318.56	73.8246	-65.4179	-330.381	84.7315	-85.3953	-255.324	38.668	-97.5974	-246.764	64.133	-108.255	-251.388	82.1969	-77.0666	-231.326	37.2035	-97.0153	-226.084	68.9643	-100.686	-240.902	75.0994	-60.8008	-215.722	34.5534	-84.987	-207.21	65.6078	-90.7599	-226.917	75.5831	-58.3909	-194.381	22.9077	-61.46	-179.125	26.8159	-85.7215	-166.059	27.074	-103.774	-236.896	10.0253	-30.071	-241.869	2.78946	1.44124	-271.504	11.7499	-23.4455	
7	0.0583333	-299.954	40.2589	-13.1977	-311.427	53.6974	-37.1975	-332.115	63.3253	-65.7599	-344.45	74.3463	-82.1665	-270.978	22.7776	-97.9407	-262.628	52.1772	-110.659	-263.371	69.241	-82.2055	-247.356	22.6608	-100.722	-240.867	54.004	-106.968	-255.905	62.7699	-67.5417	-228.709	20.7511	-92.0371	-219.659	51.0359	-100.479	-233.022	64.8643	-70.7289	-203.98	10.9831	-71.1327	-194.874	13.7246	-92.5428	-181.666	12.8002	-118.385	-236.68	1.43115	-30.1378	-242.512	-0.405518	-0.200063	-278.358	4.94103	-21.2569	
